# xmcd
#
# Track frame offsets: 
#        150
#        12000
#        30669
#        47225
#        62300
#        77855
#        93480
#        110979
#        129375
#        146165
#
# Disc length: 2182 seconds
#
# Revision: 3
# Processed by: cddbd v1.5.2PL0 Copyright (c) Steve Scherf et al.
# Submitted via: ExactAudioCopy v1.2
#
DISCID=8408840a
DTITLE=Kenny Chesney - Super Hits
DYEAR=2007
DGENRE=Country
TTITLE0=Fall In Love
TTITLE1=She Thinks My Tractor's Sexy
TTITLE2=Me And You
TTITLE3=She Gets That Way
TTITLE4=I Will Stand
TTITLE5=Back In My Arms Again
TTITLE6=California
TTITLE7=What I Need To Do
TTITLE8=A Chance
TTITLE9=Never Gonna Feel Like That Again
EXTD=YEAR: 2007
EXTT0=
EXTT1=
EXTT2=
EXTT3=
EXTT4=
EXTT5=
EXTT6=
EXTT7=
EXTT8=
EXTT9=
PLAYORDER=
